<mxfile host="app.diagrams.net" agent="Mozilla/5.0 (Windows NT 10.0; Win64; x64) AppleWebKit/537.36 (KHTML, like Gecko) Chrome/109.0.0.0 Safari/537.36" version="26.1.3">
  <diagram id="C5RBs43oDa-KdzZeNtuy" name="Page-1">
    <mxGraphModel dx="1293" dy="591" grid="1" gridSize="10" guides="1" tooltips="1" connect="1" arrows="1" fold="1" page="1" pageScale="1" pageWidth="827" pageHeight="1169" math="0" shadow="0">
      <root>
        <mxCell id="WIyWlLk6GJQsqaUBKTNV-0" />
        <mxCell id="WIyWlLk6GJQsqaUBKTNV-1" parent="WIyWlLk6GJQsqaUBKTNV-0" />
        <mxCell id="-BZLUgVBchCZVsi0vIrl-2" value="" style="edgeStyle=orthogonalEdgeStyle;rounded=0;orthogonalLoop=1;jettySize=auto;html=1;" edge="1" parent="WIyWlLk6GJQsqaUBKTNV-1" source="-BZLUgVBchCZVsi0vIrl-0" target="-BZLUgVBchCZVsi0vIrl-1">
          <mxGeometry relative="1" as="geometry" />
        </mxCell>
        <mxCell id="-BZLUgVBchCZVsi0vIrl-0" value="开始" style="rounded=1;whiteSpace=wrap;html=1;" vertex="1" parent="WIyWlLk6GJQsqaUBKTNV-1">
          <mxGeometry x="370" y="50" width="120" height="60" as="geometry" />
        </mxCell>
        <mxCell id="-BZLUgVBchCZVsi0vIrl-4" value="" style="edgeStyle=orthogonalEdgeStyle;rounded=0;orthogonalLoop=1;jettySize=auto;html=1;" edge="1" parent="WIyWlLk6GJQsqaUBKTNV-1" source="-BZLUgVBchCZVsi0vIrl-1" target="-BZLUgVBchCZVsi0vIrl-3">
          <mxGeometry relative="1" as="geometry" />
        </mxCell>
        <mxCell id="-BZLUgVBchCZVsi0vIrl-1" value="检查是否禁用raidstat&lt;div&gt;通过判断disable_raidstat标识&lt;/div&gt;" style="rounded=0;whiteSpace=wrap;html=1;align=left;" vertex="1" parent="WIyWlLk6GJQsqaUBKTNV-1">
          <mxGeometry x="370" y="150" width="120" height="60" as="geometry" />
        </mxCell>
        <mxCell id="-BZLUgVBchCZVsi0vIrl-6" value="" style="edgeStyle=orthogonalEdgeStyle;rounded=0;orthogonalLoop=1;jettySize=auto;html=1;" edge="1" parent="WIyWlLk6GJQsqaUBKTNV-1" source="-BZLUgVBchCZVsi0vIrl-3" target="-BZLUgVBchCZVsi0vIrl-5">
          <mxGeometry relative="1" as="geometry" />
        </mxCell>
        <mxCell id="-BZLUgVBchCZVsi0vIrl-3" value="定义全局变量和函数" style="rounded=0;whiteSpace=wrap;html=1;" vertex="1" parent="WIyWlLk6GJQsqaUBKTNV-1">
          <mxGeometry x="370" y="250" width="120" height="60" as="geometry" />
        </mxCell>
        <mxCell id="-BZLUgVBchCZVsi0vIrl-8" value="" style="edgeStyle=orthogonalEdgeStyle;rounded=0;orthogonalLoop=1;jettySize=auto;html=1;" edge="1" parent="WIyWlLk6GJQsqaUBKTNV-1" source="-BZLUgVBchCZVsi0vIrl-5" target="-BZLUgVBchCZVsi0vIrl-7">
          <mxGeometry relative="1" as="geometry" />
        </mxCell>
        <mxCell id="-BZLUgVBchCZVsi0vIrl-5" value="解析命令行参数，根据传参设置全局变量的值，控制输出" style="rounded=0;whiteSpace=wrap;html=1;" vertex="1" parent="WIyWlLk6GJQsqaUBKTNV-1">
          <mxGeometry x="370" y="360" width="120" height="60" as="geometry" />
        </mxCell>
        <mxCell id="-BZLUgVBchCZVsi0vIrl-10" value="" style="edgeStyle=orthogonalEdgeStyle;rounded=0;orthogonalLoop=1;jettySize=auto;html=1;" edge="1" parent="WIyWlLk6GJQsqaUBKTNV-1" source="-BZLUgVBchCZVsi0vIrl-7" target="-BZLUgVBchCZVsi0vIrl-9">
          <mxGeometry relative="1" as="geometry" />
        </mxCell>
        <mxCell id="-BZLUgVBchCZVsi0vIrl-7" value="加文件锁" style="rounded=0;whiteSpace=wrap;html=1;" vertex="1" parent="WIyWlLk6GJQsqaUBKTNV-1">
          <mxGeometry x="370" y="460" width="120" height="60" as="geometry" />
        </mxCell>
        <mxCell id="-BZLUgVBchCZVsi0vIrl-14" style="edgeStyle=orthogonalEdgeStyle;rounded=0;orthogonalLoop=1;jettySize=auto;html=1;entryX=0.5;entryY=0;entryDx=0;entryDy=0;" edge="1" parent="WIyWlLk6GJQsqaUBKTNV-1" source="-BZLUgVBchCZVsi0vIrl-9" target="-BZLUgVBchCZVsi0vIrl-12">
          <mxGeometry relative="1" as="geometry" />
        </mxCell>
        <mxCell id="-BZLUgVBchCZVsi0vIrl-15" style="edgeStyle=orthogonalEdgeStyle;rounded=0;orthogonalLoop=1;jettySize=auto;html=1;entryX=0.5;entryY=0;entryDx=0;entryDy=0;" edge="1" parent="WIyWlLk6GJQsqaUBKTNV-1" source="-BZLUgVBchCZVsi0vIrl-9" target="-BZLUgVBchCZVsi0vIrl-13">
          <mxGeometry relative="1" as="geometry" />
        </mxCell>
        <mxCell id="-BZLUgVBchCZVsi0vIrl-9" value="需要点灯 |&amp;nbsp;&lt;div&gt;list_to_be_used 不存在 |&amp;nbsp;&lt;/div&gt;&lt;div&gt;禁用缓存 |&amp;nbsp;&lt;/div&gt;&lt;div&gt;获取RAID日志|&lt;/div&gt;&lt;div&gt;&amp;nbsp;获取原始磁盘输出&lt;/div&gt;" style="rhombus;whiteSpace=wrap;html=1;" vertex="1" parent="WIyWlLk6GJQsqaUBKTNV-1">
          <mxGeometry x="342.5" y="550" width="175" height="120" as="geometry" />
        </mxCell>
        <mxCell id="-BZLUgVBchCZVsi0vIrl-12" value="main函数调用" style="rounded=0;whiteSpace=wrap;html=1;" vertex="1" parent="WIyWlLk6GJQsqaUBKTNV-1">
          <mxGeometry x="250" y="750" width="120" height="60" as="geometry" />
        </mxCell>
        <mxCell id="-BZLUgVBchCZVsi0vIrl-13" value="main_quick函数调用" style="rounded=0;whiteSpace=wrap;html=1;" vertex="1" parent="WIyWlLk6GJQsqaUBKTNV-1">
          <mxGeometry x="490" y="750" width="120" height="60" as="geometry" />
        </mxCell>
        <mxCell id="-BZLUgVBchCZVsi0vIrl-16" value="是" style="text;html=1;align=center;verticalAlign=middle;whiteSpace=wrap;rounded=0;" vertex="1" parent="WIyWlLk6GJQsqaUBKTNV-1">
          <mxGeometry x="330" y="690" width="60" height="30" as="geometry" />
        </mxCell>
        <mxCell id="-BZLUgVBchCZVsi0vIrl-21" value="否" style="text;html=1;align=center;verticalAlign=middle;whiteSpace=wrap;rounded=0;" vertex="1" parent="WIyWlLk6GJQsqaUBKTNV-1">
          <mxGeometry x="457.5" y="690" width="60" height="30" as="geometry" />
        </mxCell>
      </root>
    </mxGraphModel>
  </diagram>
</mxfile>
